{
	"nodes":[{
		"name":"desk_stuff",
		"translation":[9.698626518249512,
		-135.1051788330078,
		-164.8493194580078],
		"rotation":[0.0,
		0.0,
		0.0,
		-1.0],
		"scale":[1.0,
		1.0,
		1.0],
		"children":[1,
		4,
		8,
		13,
		14,
		17]
	},
	{
		"name":"monitor L",
		"translation":[-133.32020568847657,
		44.84400177001953,
		42.35920333862305],
		"rotation":[0.0,
		-0.7836934328079224,
		0.0,
		0.6211477518081665],
		"scale":[1.0,
		1.0,
		1.0],
		"children":[2,
		3]
	},
	{
		"name":"monitor L-Mat",
		"mesh":0
	},
	{
		"name":"monitor L-Mat",
		"mesh":1
	},
	{
		"name":"monitor R",
		"translation":[119.51412963867188,
		44.84400177001953,
		44.075172424316409],
		"rotation":[0.0,
		-0.5962249040603638,
		0.0,
		0.8028174638748169],
		"scale":[1.0,
		1.0,
		1.0],
		"children":[5]
	},
	{
		"name":"monitor L",
		"children":[6,
		7]
	},
	{
		"name":"monitor L-Mat",
		"mesh":2
	},
	{
		"name":"monitor L-Mat",
		"mesh":3
	},
	{
		"name":"wires",
		"translation":[159.49681091308595,
		-84.76204681396485,
		-100.68553161621094],
		"rotation":[0.0,
		0.0,
		0.0,
		-1.0],
		"scale":[1.0,
		1.0,
		1.0],
		"mesh":4,
		"children":[9,
		10,
		11,
		12]
	},
	{
		"name":"Cap 1",
		"translation":[-40.79341125488281,
		179.11830139160157,
		123.9320068359375],
		"rotation":[0.025317072868347169,
		0.03821520134806633,
		0.9887797832489014,
		0.1421729326248169],
		"scale":[1.0,
		1.0,
		1.0],
		"mesh":5
	},
	{
		"name":"Cap 2",
		"translation":[-226.14524841308595,
		130.76971435546876,
		106.63633728027344],
		"rotation":[0.9918702840805054,
		0.11462609469890595,
		0.0529489740729332,
		0.015831233933568],
		"scale":[1.0,
		1.0,
		1.0],
		"mesh":6
	},
	{
		"name":"Cap 1",
		"translation":[-288.5439453125,
		170.14405822753907,
		126.36609649658203],
		"rotation":[0.00822026003152132,
		0.038567837327718738,
		0.9903513789176941,
		0.13284967839717866],
		"scale":[1.0,
		1.0,
		1.0],
		"mesh":7
	},
	{
		"name":"Cap 2",
		"translation":[-231.6781463623047,
		130.76971435546876,
		106.3289566040039],
		"rotation":[0.7820994257926941,
		0.6205559372901917,
		-0.04924900084733963,
		-0.028377624228596689],
		"scale":[1.0,
		1.0,
		1.0],
		"mesh":8
	},
	{
		"name":"audio",
		"translation":[-72.42301940917969,
		48.320804595947269,
		19.158777236938478],
		"rotation":[0.0,
		-0.6842460632324219,
		0.0,
		0.7292512059211731],
		"scale":[1.0,
		1.0,
		1.0],
		"mesh":9
	},
	{
		"name":"laptop",
		"translation":[-4.468835353851318,
		46.221466064453128,
		40.82807922363281],
		"rotation":[0.0,
		-0.741624653339386,
		0.0,
		0.670815110206604],
		"scale":[1.0,
		1.0,
		1.0],
		"children":[15,
		16]
	},
	{
		"name":"laptop-Mat",
		"mesh":10
	},
	{
		"name":"laptop-Mat.1",
		"mesh":11
	},
	{
		"name":"desk",
		"translation":[-4.339427471160889,
		-9.780228614807129,
		40.698673248291019],
		"rotation":[0.0,
		-0.7071067690849304,
		0.0,
		0.7071067690849304],
		"scale":[1.0,
		1.0,
		1.0],
		"children":[18,
		19,
		20,
		21,
		22]
	},
	{
		"name":"Cube.4",
		"translation":[-72.98617553710938,
		49.59531784057617,
		150.47161865234376],
		"rotation":[0.0,
		0.0,
		0.0,
		-1.0],
		"scale":[1.0,
		1.0,
		1.0],
		"mesh":12
	},
	{
		"name":"Cube.3",
		"translation":[-73.01243591308594,
		48.412601470947269,
		-150.2203369140625],
		"rotation":[0.0,
		0.0,
		0.0,
		-1.0],
		"scale":[1.0,
		1.0,
		1.0],
		"mesh":13
	},
	{
		"name":"Cube.2",
		"translation":[73.28956604003906,
		49.07805252075195,
		-150.22357177734376],
		"rotation":[0.0,
		0.0,
		0.0,
		-1.0],
		"scale":[1.0,
		1.0,
		1.0],
		"mesh":14
	},
	{
		"name":"Cube.1",
		"translation":[73.28083801269531,
		47.75383377075195,
		150.43954467773438],
		"rotation":[0.0,
		0.0,
		0.0,
		-1.0],
		"scale":[1.0,
		1.0,
		1.0],
		"mesh":15
	},
	{
		"name":"top",
		"translation":[0.1294081062078476,
		51.750858306884769,
		0.1294081062078476],
		"rotation":[0.0,
		0.0,
		0.0,
		-1.0],
		"scale":[1.0,
		1.0,
		1.0],
		"mesh":16
	}],
	"asset":{
		"version":"2.0",
		"generator":"Created using the official Cinema 4D glTF Exporter 1.000x284978"
	},
	"scenes":[{
		"nodes":[0]
	}],
	"meshes":[{
		"name":"monitor L-Mat",
		"primitives":[{
			"material":0,
			"attributes":{
				"POSITION":1,
				"NORMAL":2,
				"TEXCOORD_0":3
			},
			"indices":0
		}]
	},
	{
		"name":"monitor L-Mat",
		"primitives":[{
			"material":1,
			"attributes":{
				"POSITION":5,
				"NORMAL":6,
				"TEXCOORD_0":7
			},
			"indices":4
		}]
	},
	{
		"name":"monitor L-Mat",
		"primitives":[{
			"material":0,
			"attributes":{
				"POSITION":9,
				"NORMAL":10,
				"TEXCOORD_0":11
			},
			"indices":8
		}]
	},
	{
		"name":"monitor L-Mat",
		"primitives":[{
			"material":1,
			"attributes":{
				"POSITION":13,
				"NORMAL":14,
				"TEXCOORD_0":15
			},
			"indices":12
		}]
	},
	{
		"name":"wires",
		"primitives":[{
			"material":0,
			"attributes":{
				"POSITION":17,
				"NORMAL":18,
				"TEXCOORD_0":19
			},
			"indices":16
		}]
	},
	{
		"name":"Cap 1",
		"primitives":[{
			"material":0,
			"attributes":{
				"POSITION":21,
				"NORMAL":22,
				"TEXCOORD_0":23
			},
			"indices":20
		}]
	},
	{
		"name":"Cap 2",
		"primitives":[{
			"material":0,
			"attributes":{
				"POSITION":25,
				"NORMAL":26,
				"TEXCOORD_0":27
			},
			"indices":24
		}]
	},
	{
		"name":"Cap 1",
		"primitives":[{
			"material":0,
			"attributes":{
				"POSITION":29,
				"NORMAL":30,
				"TEXCOORD_0":31
			},
			"indices":28
		}]
	},
	{
		"name":"Cap 2",
		"primitives":[{
			"material":0,
			"attributes":{
				"POSITION":33,
				"NORMAL":34,
				"TEXCOORD_0":35
			},
			"indices":32
		}]
	},
	{
		"name":"audio",
		"primitives":[{
			"attributes":{
				"POSITION":37,
				"NORMAL":38,
				"TEXCOORD_0":39
			},
			"indices":36
		}]
	},
	{
		"name":"laptop-Mat",
		"primitives":[{
			"material":0,
			"attributes":{
				"POSITION":41,
				"NORMAL":42,
				"TEXCOORD_0":43
			},
			"indices":40
		}]
	},
	{
		"name":"laptop-Mat.1",
		"primitives":[{
			"material":2,
			"attributes":{
				"POSITION":45,
				"NORMAL":46,
				"TEXCOORD_0":47
			},
			"indices":44
		}]
	},
	{
		"name":"Cube.4",
		"primitives":[{
			"material":1,
			"attributes":{
				"POSITION":49,
				"NORMAL":50,
				"TEXCOORD_0":51
			},
			"indices":48
		}]
	},
	{
		"name":"Cube.3",
		"primitives":[{
			"material":1,
			"attributes":{
				"POSITION":53,
				"NORMAL":54,
				"TEXCOORD_0":55
			},
			"indices":52
		}]
	},
	{
		"name":"Cube.2",
		"primitives":[{
			"material":1,
			"attributes":{
				"POSITION":57,
				"NORMAL":58,
				"TEXCOORD_0":59
			},
			"indices":56
		}]
	},
	{
		"name":"Cube.1",
		"primitives":[{
			"material":1,
			"attributes":{
				"POSITION":61,
				"NORMAL":62,
				"TEXCOORD_0":63
			},
			"indices":60
		}]
	},
	{
		"name":"top",
		"primitives":[{
			"material":1,
			"attributes":{
				"POSITION":65,
				"NORMAL":66,
				"TEXCOORD_0":67
			},
			"indices":64
		}]
	}],
	"accessors":[{
		"bufferView":0,
		"componentType":5123,
		"type":"SCALAR",
		"count":5172,
		"byteOffset":0,
		"min":[0],
		"max":[1827]
	},
	{
		"bufferView":1,
		"componentType":5126,
		"type":"VEC3",
		"count":1828,
		"byteOffset":0,
		"min":[-21.14693260192871,
		0.4552430212497711,
		-23.219331741333009],
		"max":[23.219331741333009,
		85.04297637939453,
		23.219331741333009]
	},
	{
		"bufferView":1,
		"componentType":5126,
		"type":"VEC3",
		"count":1828,
		"byteOffset":12,
		"min":[-1.0,
		-1.0,
		-1.0],
		"max":[1.0,
		1.0,
		1.0]
	},
	{
		"bufferView":1,
		"componentType":5126,
		"type":"VEC2",
		"count":1828,
		"byteOffset":24,
		"min":[-1.0,
		-0.6497596502304077],
		"max":[1.6287802457809449,
		2.002917766571045]
	},
	{
		"bufferView":2,
		"componentType":5123,
		"type":"SCALAR",
		"count":912,
		"byteOffset":0,
		"min":[0],
		"max":[344]
	},
	{
		"bufferView":3,
		"componentType":5126,
		"type":"VEC3",
		"count":345,
		"byteOffset":0,
		"min":[-7.083844184875488,
		4.980686664581299,
		-21.14693260192871],
		"max":[21.14693260192871,
		80.51753234863281,
		21.14693260192871]
	},
	{
		"bufferView":3,
		"componentType":5126,
		"type":"VEC3",
		"count":345,
		"byteOffset":12,
		"min":[0.0,
		0.0,
		-1.0],
		"max":[1.0,
		0.0,
		1.0]
	},
	{
		"bufferView":3,
		"componentType":5126,
		"type":"VEC2",
		"count":345,
		"byteOffset":24,
		"min":[0.0,
		0.0],
		"max":[1.0,
		1.109365701675415]
	},
	{
		"bufferView":4,
		"componentType":5123,
		"type":"SCALAR",
		"count":5172,
		"byteOffset":0,
		"min":[0],
		"max":[1827]
	},
	{
		"bufferView":5,
		"componentType":5126,
		"type":"VEC3",
		"count":1828,
		"byteOffset":0,
		"min":[-21.14693260192871,
		0.4552430212497711,
		-23.219331741333009],
		"max":[23.219331741333009,
		85.04297637939453,
		23.219331741333009]
	},
	{
		"bufferView":5,
		"componentType":5126,
		"type":"VEC3",
		"count":1828,
		"byteOffset":12,
		"min":[-1.0,
		-1.0,
		-1.0],
		"max":[1.0,
		1.0,
		1.0]
	},
	{
		"bufferView":5,
		"componentType":5126,
		"type":"VEC2",
		"count":1828,
		"byteOffset":24,
		"min":[-1.0,
		-0.6497596502304077],
		"max":[1.6287802457809449,
		2.002917766571045]
	},
	{
		"bufferView":6,
		"componentType":5123,
		"type":"SCALAR",
		"count":912,
		"byteOffset":0,
		"min":[0],
		"max":[344]
	},
	{
		"bufferView":7,
		"componentType":5126,
		"type":"VEC3",
		"count":345,
		"byteOffset":0,
		"min":[-7.083844184875488,
		4.980686664581299,
		-21.14693260192871],
		"max":[21.14693260192871,
		80.51753234863281,
		21.14693260192871]
	},
	{
		"bufferView":7,
		"componentType":5126,
		"type":"VEC3",
		"count":345,
		"byteOffset":12,
		"min":[0.0,
		0.0,
		-1.0],
		"max":[1.0,
		0.0,
		1.0]
	},
	{
		"bufferView":7,
		"componentType":5126,
		"type":"VEC2",
		"count":345,
		"byteOffset":24,
		"min":[0.0,
		0.0],
		"max":[1.0,
		1.109365701675415]
	},
	{
		"bufferView":8,
		"componentType":5123,
		"type":"SCALAR",
		"count":27216,
		"byteOffset":0,
		"min":[0],
		"max":[4755]
	},
	{
		"bufferView":9,
		"componentType":5126,
		"type":"VEC3",
		"count":4756,
		"byteOffset":0,
		"min":[-289.2313232421875,
		100.30276489257813,
		53.18203353881836],
		"max":[-40.175445556640628,
		179.73580932617188,
		126.41481018066406]
	},
	{
		"bufferView":9,
		"componentType":5126,
		"type":"VEC3",
		"count":4756,
		"byteOffset":12,
		"min":[-0.9997401833534241,
		-0.999987781047821,
		-0.9990609884262085],
		"max":[0.9997400045394898,
		0.9999877214431763,
		0.9990613460540772]
	},
	{
		"bufferView":9,
		"componentType":5126,
		"type":"VEC2",
		"count":4756,
		"byteOffset":24,
		"min":[0.0,
		0.0],
		"max":[1.0,
		1.0]
	},
	{
		"bufferView":10,
		"componentType":5123,
		"type":"SCALAR",
		"count":78,
		"byteOffset":0,
		"min":[0],
		"max":[27]
	},
	{
		"bufferView":11,
		"componentType":5126,
		"type":"VEC3",
		"count":28,
		"byteOffset":0,
		"min":[-0.6199839115142822,
		-0.6199839115142822,
		-1.4210854715202005e-14],
		"max":[0.6199839115142822,
		0.6199839115142822,
		2.842170943040401e-14]
	},
	{
		"bufferView":11,
		"componentType":5126,
		"type":"VEC3",
		"count":28,
		"byteOffset":12,
		"min":[-2.02593952898511e-12,
		-1.251259512669023e-12,
		1.0],
		"max":[1.638598002944025e-12,
		4.319602943565759e-13,
		1.0]
	},
	{
		"bufferView":11,
		"componentType":5126,
		"type":"VEC2",
		"count":28,
		"byteOffset":24,
		"min":[0.0,
		0.0],
		"max":[1.0,
		1.0]
	},
	{
		"bufferView":12,
		"componentType":5123,
		"type":"SCALAR",
		"count":78,
		"byteOffset":0,
		"min":[0],
		"max":[27]
	},
	{
		"bufferView":13,
		"componentType":5126,
		"type":"VEC3",
		"count":28,
		"byteOffset":0,
		"min":[-0.6199839115142822,
		-0.6199839115142822,
		-1.4210854715202005e-14],
		"max":[0.6199839115142822,
		0.6199839115142822,
		2.842170943040401e-14]
	},
	{
		"bufferView":13,
		"componentType":5126,
		"type":"VEC3",
		"count":28,
		"byteOffset":12,
		"min":[-4.551310500353067e-13,
		-8.193001398842936e-13,
		-1.0],
		"max":[8.192991641023384e-13,
		8.192991641023384e-13,
		-1.0]
	},
	{
		"bufferView":13,
		"componentType":5126,
		"type":"VEC2",
		"count":28,
		"byteOffset":24,
		"min":[0.0,
		0.0],
		"max":[1.0,
		1.0]
	},
	{
		"bufferView":14,
		"componentType":5123,
		"type":"SCALAR",
		"count":78,
		"byteOffset":0,
		"min":[0],
		"max":[27]
	},
	{
		"bufferView":15,
		"componentType":5126,
		"type":"VEC3",
		"count":28,
		"byteOffset":0,
		"min":[-0.6199839115142822,
		-0.6199839115142822,
		0.0],
		"max":[0.6199839115142822,
		0.6199839115142822,
		4.263256414560601e-14]
	},
	{
		"bufferView":15,
		"componentType":5126,
		"type":"VEC3",
		"count":28,
		"byteOffset":12,
		"min":[-1.6386002797685872e-12,
		-8.192991641023384e-13,
		1.0],
		"max":[1.206637871217775e-12,
		6.375423734945873e-13,
		1.0]
	},
	{
		"bufferView":15,
		"componentType":5126,
		"type":"VEC2",
		"count":28,
		"byteOffset":24,
		"min":[0.0,
		0.0],
		"max":[1.0,
		1.0]
	},
	{
		"bufferView":16,
		"componentType":5123,
		"type":"SCALAR",
		"count":78,
		"byteOffset":0,
		"min":[0],
		"max":[27]
	},
	{
		"bufferView":17,
		"componentType":5126,
		"type":"VEC3",
		"count":28,
		"byteOffset":0,
		"min":[-0.6199839115142822,
		-0.6199839115142822,
		-2.842170943040401e-14],
		"max":[0.6199839115142822,
		0.6199839115142822,
		0.0]
	},
	{
		"bufferView":17,
		"componentType":5126,
		"type":"VEC3",
		"count":28,
		"byteOffset":12,
		"min":[-7.746774142308732e-13,
		-8.192990014720125e-13,
		-1.0],
		"max":[8.639207513434777e-13,
		8.192991641023384e-13,
		-1.0]
	},
	{
		"bufferView":17,
		"componentType":5126,
		"type":"VEC2",
		"count":28,
		"byteOffset":24,
		"min":[0.0,
		0.0],
		"max":[1.0,
		1.0]
	},
	{
		"bufferView":18,
		"componentType":5123,
		"type":"SCALAR",
		"count":324,
		"byteOffset":0,
		"min":[0],
		"max":[149]
	},
	{
		"bufferView":19,
		"componentType":5126,
		"type":"VEC3",
		"count":150,
		"byteOffset":0,
		"min":[-15.131199836730957,
		-4.097002983093262,
		-15.131199836730957],
		"max":[15.131199836730957,
		4.097002983093262,
		15.131199836730957]
	},
	{
		"bufferView":19,
		"componentType":5126,
		"type":"VEC3",
		"count":150,
		"byteOffset":12,
		"min":[-0.9633435010910034,
		-0.972128689289093,
		-0.9633435010910034],
		"max":[0.9633435010910034,
		0.972128689289093,
		0.9633433818817139]
	},
	{
		"bufferView":19,
		"componentType":5126,
		"type":"VEC2",
		"count":150,
		"byteOffset":24,
		"min":[0.0,
		0.0],
		"max":[1.0,
		1.0]
	},
	{
		"bufferView":20,
		"componentType":5123,
		"type":"SCALAR",
		"count":174,
		"byteOffset":0,
		"min":[0],
		"max":[90]
	},
	{
		"bufferView":21,
		"componentType":5126,
		"type":"VEC3",
		"count":91,
		"byteOffset":0,
		"min":[-31.825008392333986,
		-1.2698965072631837,
		-29.800079345703126],
		"max":[20.429174423217775,
		38.56366729736328,
		29.800079345703126]
	},
	{
		"bufferView":21,
		"componentType":5126,
		"type":"VEC3",
		"count":91,
		"byteOffset":12,
		"min":[-1.0,
		-1.0,
		-1.0],
		"max":[1.0,
		1.0,
		1.0]
	},
	{
		"bufferView":21,
		"componentType":5126,
		"type":"VEC2",
		"count":91,
		"byteOffset":24,
		"min":[-0.5703049898147583,
		0.0],
		"max":[1.0,
		1.0]
	},
	{
		"bufferView":22,
		"componentType":5123,
		"type":"SCALAR",
		"count":6,
		"byteOffset":0,
		"min":[0],
		"max":[3]
	},
	{
		"bufferView":23,
		"componentType":5126,
		"type":"VEC3",
		"count":4,
		"byteOffset":0,
		"min":[-30.225156784057618,
		2.6316885948181154,
		-28.36967658996582],
		"max":[-19.11389923095703,
		37.201873779296878,
		28.36967658996582]
	},
	{
		"bufferView":23,
		"componentType":5126,
		"type":"VEC3",
		"count":4,
		"byteOffset":12,
		"min":[0.9520313143730164,
		0.3059687614440918,
		0.0],
		"max":[0.9520313143730164,
		0.3059687614440918,
		0.0]
	},
	{
		"bufferView":23,
		"componentType":5126,
		"type":"VEC2",
		"count":4,
		"byteOffset":24,
		"min":[0.06615462899208069,
		0.024000000208616258],
		"max":[0.06615462899208069,
		0.9759999513626099]
	},
	{
		"bufferView":24,
		"componentType":5123,
		"type":"SCALAR",
		"count":36,
		"byteOffset":0,
		"min":[0],
		"max":[23]
	},
	{
		"bufferView":25,
		"componentType":5126,
		"type":"VEC3",
		"count":24,
		"byteOffset":0,
		"min":[-4.018414497375488,
		-178.1298370361328,
		-4.018414497375488],
		"max":[4.018414497375488,
		-0.4402333199977875,
		4.018414497375488]
	},
	{
		"bufferView":25,
		"componentType":5126,
		"type":"VEC3",
		"count":24,
		"byteOffset":12,
		"min":[-1.0,
		-1.0,
		-1.0],
		"max":[1.0,
		1.0,
		1.0]
	},
	{
		"bufferView":25,
		"componentType":5126,
		"type":"VEC2",
		"count":24,
		"byteOffset":24,
		"min":[0.0,
		0.0],
		"max":[1.0,
		1.0]
	},
	{
		"bufferView":26,
		"componentType":5123,
		"type":"SCALAR",
		"count":36,
		"byteOffset":0,
		"min":[0],
		"max":[23]
	},
	{
		"bufferView":27,
		"componentType":5126,
		"type":"VEC3",
		"count":24,
		"byteOffset":0,
		"min":[-4.018414497375488,
		-176.95779418945313,
		-4.018414497375488],
		"max":[4.018414497375488,
		0.7318054437637329,
		4.018414497375488]
	},
	{
		"bufferView":27,
		"componentType":5126,
		"type":"VEC3",
		"count":24,
		"byteOffset":12,
		"min":[-1.0,
		-1.0,
		-1.0],
		"max":[1.0,
		1.0,
		1.0]
	},
	{
		"bufferView":27,
		"componentType":5126,
		"type":"VEC2",
		"count":24,
		"byteOffset":24,
		"min":[0.0,
		0.0],
		"max":[1.0,
		1.0]
	},
	{
		"bufferView":28,
		"componentType":5123,
		"type":"SCALAR",
		"count":36,
		"byteOffset":0,
		"min":[0],
		"max":[23]
	},
	{
		"bufferView":29,
		"componentType":5126,
		"type":"VEC3",
		"count":24,
		"byteOffset":0,
		"min":[-4.018414497375488,
		-177.60797119140626,
		-4.018414497375488],
		"max":[4.018414497375488,
		0.08163470774888993,
		4.018414497375488]
	},
	{
		"bufferView":29,
		"componentType":5126,
		"type":"VEC3",
		"count":24,
		"byteOffset":12,
		"min":[-1.0,
		-1.0,
		-1.0],
		"max":[1.0,
		1.0,
		1.0]
	},
	{
		"bufferView":29,
		"componentType":5126,
		"type":"VEC2",
		"count":24,
		"byteOffset":24,
		"min":[0.0,
		0.0],
		"max":[1.0,
		1.0]
	},
	{
		"bufferView":30,
		"componentType":5123,
		"type":"SCALAR",
		"count":36,
		"byteOffset":0,
		"min":[0],
		"max":[23]
	},
	{
		"bufferView":31,
		"componentType":5126,
		"type":"VEC3",
		"count":24,
		"byteOffset":0,
		"min":[-4.018414497375488,
		-176.28375244140626,
		-4.018414497375488],
		"max":[4.018414497375488,
		1.4058537483215333,
		4.018414497375488]
	},
	{
		"bufferView":31,
		"componentType":5126,
		"type":"VEC3",
		"count":24,
		"byteOffset":12,
		"min":[-1.0,
		-1.0,
		-1.0],
		"max":[1.0,
		1.0,
		1.0]
	},
	{
		"bufferView":31,
		"componentType":5126,
		"type":"VEC2",
		"count":24,
		"byteOffset":24,
		"min":[0.0,
		0.0],
		"max":[1.0,
		1.0]
	},
	{
		"bufferView":32,
		"componentType":5123,
		"type":"SCALAR",
		"count":36,
		"byteOffset":0,
		"min":[0],
		"max":[23]
	},
	{
		"bufferView":33,
		"componentType":5126,
		"type":"VEC3",
		"count":24,
		"byteOffset":0,
		"min":[-77.19999694824219,
		-2.7306833267211916,
		-154.39999389648438],
		"max":[77.19999694824219,
		2.7306833267211916,
		154.39999389648438]
	},
	{
		"bufferView":33,
		"componentType":5126,
		"type":"VEC3",
		"count":24,
		"byteOffset":12,
		"min":[-1.0,
		-1.0,
		-1.0],
		"max":[1.0,
		1.0,
		1.0]
	},
	{
		"bufferView":33,
		"componentType":5126,
		"type":"VEC2",
		"count":24,
		"byteOffset":24,
		"min":[0.0,
		0.0],
		"max":[1.0,
		1.0]
	}],
	"bufferViews":[{
		"buffer":0,
		"byteOffset":0,
		"byteLength":10344,
		"target":34963
	},
	{
		"buffer":0,
		"byteOffset":10344,
		"byteLength":58496,
		"target":34962,
		"byteStride":32
	},
	{
		"buffer":1,
		"byteOffset":0,
		"byteLength":1824,
		"target":34963
	},
	{
		"buffer":1,
		"byteOffset":1824,
		"byteLength":11040,
		"target":34962,
		"byteStride":32
	},
	{
		"buffer":2,
		"byteOffset":0,
		"byteLength":10344,
		"target":34963
	},
	{
		"buffer":2,
		"byteOffset":10344,
		"byteLength":58496,
		"target":34962,
		"byteStride":32
	},
	{
		"buffer":3,
		"byteOffset":0,
		"byteLength":1824,
		"target":34963
	},
	{
		"buffer":3,
		"byteOffset":1824,
		"byteLength":11040,
		"target":34962,
		"byteStride":32
	},
	{
		"buffer":4,
		"byteOffset":0,
		"byteLength":54432,
		"target":34963
	},
	{
		"buffer":4,
		"byteOffset":54432,
		"byteLength":152192,
		"target":34962,
		"byteStride":32
	},
	{
		"buffer":5,
		"byteOffset":0,
		"byteLength":156,
		"target":34963
	},
	{
		"buffer":5,
		"byteOffset":156,
		"byteLength":896,
		"target":34962,
		"byteStride":32
	},
	{
		"buffer":6,
		"byteOffset":0,
		"byteLength":156,
		"target":34963
	},
	{
		"buffer":6,
		"byteOffset":156,
		"byteLength":896,
		"target":34962,
		"byteStride":32
	},
	{
		"buffer":7,
		"byteOffset":0,
		"byteLength":156,
		"target":34963
	},
	{
		"buffer":7,
		"byteOffset":156,
		"byteLength":896,
		"target":34962,
		"byteStride":32
	},
	{
		"buffer":8,
		"byteOffset":0,
		"byteLength":156,
		"target":34963
	},
	{
		"buffer":8,
		"byteOffset":156,
		"byteLength":896,
		"target":34962,
		"byteStride":32
	},
	{
		"buffer":9,
		"byteOffset":0,
		"byteLength":648,
		"target":34963
	},
	{
		"buffer":9,
		"byteOffset":648,
		"byteLength":4800,
		"target":34962,
		"byteStride":32
	},
	{
		"buffer":10,
		"byteOffset":0,
		"byteLength":348,
		"target":34963
	},
	{
		"buffer":10,
		"byteOffset":348,
		"byteLength":2912,
		"target":34962,
		"byteStride":32
	},
	{
		"buffer":11,
		"byteOffset":0,
		"byteLength":12,
		"target":34963
	},
	{
		"buffer":11,
		"byteOffset":12,
		"byteLength":128,
		"target":34962,
		"byteStride":32
	},
	{
		"buffer":12,
		"byteOffset":0,
		"byteLength":72,
		"target":34963
	},
	{
		"buffer":12,
		"byteOffset":72,
		"byteLength":768,
		"target":34962,
		"byteStride":32
	},
	{
		"buffer":13,
		"byteOffset":0,
		"byteLength":72,
		"target":34963
	},
	{
		"buffer":13,
		"byteOffset":72,
		"byteLength":768,
		"target":34962,
		"byteStride":32
	},
	{
		"buffer":14,
		"byteOffset":0,
		"byteLength":72,
		"target":34963
	},
	{
		"buffer":14,
		"byteOffset":72,
		"byteLength":768,
		"target":34962,
		"byteStride":32
	},
	{
		"buffer":15,
		"byteOffset":0,
		"byteLength":72,
		"target":34963
	},
	{
		"buffer":15,
		"byteOffset":72,
		"byteLength":768,
		"target":34962,
		"byteStride":32
	},
	{
		"buffer":16,
		"byteOffset":0,
		"byteLength":72,
		"target":34963
	},
	{
		"buffer":16,
		"byteOffset":72,
		"byteLength":768,
		"target":34962,
		"byteStride":32
	}],
	"buffers":[{
		"uri":"data:application/octet-stream;base64,",
		"byteLength":68840
	},
	{
		"uri":"data:application/octet-stream;base64,",
		"byteLength":12864
	},
	{
		"uri":"data:application/octet-stream;base64,",
		"byteLength":68840
	},
	{
		"uri":"data:application/octet-stream;base64,",
		"byteLength":12864
	},
	{
		"uri":"data:application/octet-stream;base64,",
		"byteLength":206624
	},
	{
		"uri":"data:application/octet-stream;base64,",
		"byteLength":1052
	},
	{
		"uri":"data:application/octet-stream;base64,",
		"byteLength":1052
	},
	{
		"uri":"data:application/octet-stream;base64,",
		"byteLength":1052
	},
	{
		"uri":"data:application/octet-stream;base64,",
		"byteLength":1052
	},
	{
		"uri":"data:application/octet-stream;base64,",
		"byteLength":5448
	},
	{
		"uri":"data:application/octet-stream;base64,",
		"byteLength":3260
	},
	{
		"uri":"data:application/octet-stream;base64,",
		"byteLength":140
	},
	{
		"uri":"data:application/octet-stream;base64,",
		"byteLength":840
	},
	{
		"uri":"data:application/octet-stream;base64,",
		"byteLength":840
	},
	{
		"uri":"data:application/octet-stream;base64,",
		"byteLength":840
	},
	{
		"uri":"data:application/octet-stream;base64,",
		"byteLength":840
	},
	{
		"uri":"data:application/octet-stream;base64,",
		"byteLength":840
	}],
	"materials":[{
		"alphaMode":"OPAQUE",
		"pbrMetallicRoughness":{
			"baseColorFactor":[0.0,
			0.0,
			0.0,
			1.0],
			"metallicFactor":0.0,
			"roughnessFactor":0.18
		},
		"emissiveFactor":[0.0,
		0.0,
		0.0],
		"doubleSided":false,
		"name":"Mat"
	},
	{
		"alphaMode":"OPAQUE",
		"pbrMetallicRoughness":{
			"baseColorFactor":[1.0,
			1.0,
			1.0,
			1.0],
			"metallicFactor":0.0,
			"roughnessFactor":0.23
		},
		"emissiveFactor":[0.0,
		0.0,
		0.0],
		"doubleSided":false,
		"name":"Mat"
	},
	{
		"alphaMode":"OPAQUE",
		"pbrMetallicRoughness":{
			"baseColorFactor":[1.0,
			1.0,
			1.0,
			1.0],
			"metallicFactor":1.0,
			"roughnessFactor":1.0
		},
		"emissiveFactor":[1.0,
		1.0,
		1.0],
		"doubleSided":false,
		"name":"Mat.1"
	}]
}